# xmcd
#
# Track frame offsets: 
#        150
#        12396
#        23518
#        34130
#        46725
#        57652
#        67265
#        80555
#        92911
#        110206
#        123636
#        133303
#        143850
#        159104
#        172765
#
# Disc length: 2466 seconds
#
# Revision: 5
# Processed by: cddbd v1.5.2PL0 Copyright (c) Steve Scherf et al.
# Submitted via: ExactAudioCopy v0.99pb5
#
DISCID=d209a00f
DTITLE=Various Artist - Classic Country - TL 626-28 - Giants - CD 2
DYEAR=2002
DGENRE=Country
TTITLE0=Tammy Wynette - Stand by your man
TTITLE1=Conway Twitty - Hello darlin'
TTITLE2=Jerry Reed - When you're hot, you're hot
TTITLE3=Donna Fargo - Funny face
TTITLE4=Johnny Cash - Daddy sang bass
TTITLE5=Tom T. Hall - I love
TTITLE6=Lynn Anderson - Rose garden
TTITLE7=Merle Haggard - If we make it through December
TTITLE8=Ray Price - For the good times
TTITLE9=George Jones and Tammy Wynette - We're gonna hold on
TTITLE10=Johnny Rodriguez - Riding my thumb to Mexico
TTITLE11=Statler Brothers - Flowers on the wall
TTITLE12=Jeanne Pruett - Satin sheets
TTITLE13=Conway Twitty - You've never been this far before
TTITLE14=Charlie Rich - The most beautiful girl
EXTD=YEAR: 2002
EXTT0=
EXTT1=
EXTT2=
EXTT3=
EXTT4=
EXTT5=
EXTT6=
EXTT7=
EXTT8=
EXTT9=
EXTT10=
EXTT11=
EXTT12=
EXTT13=
EXTT14=
PLAYORDER=
